<svg width="161" height="55" viewBox="0 0 161 55" fill="none" xmlns="http://www.w3.org/2000/svg">
<path d="M17.7283 41.2C16.995 41.2 16.3117 40.8833 15.6783 40.25C15.045 39.5833 14.595 38.4333 14.3283 36.8C14.2283 36.2333 14.1783 35.6833 14.1783 35.15C14.1783 34.05 14.3283 33 14.6283 32C14.9617 30.9667 15.3617 30.0667 15.8283 29.3C16.5617 28.1333 17.445 27.4667 18.4783 27.3C18.8117 27.3 18.9783 27.3333 18.9783 27.4C18.9783 27.4667 18.8283 27.5333 18.5283 27.6C17.7617 27.7667 17.0117 28.4 16.2783 29.5C15.4117 30.9667 14.9783 32.7333 14.9783 34.8C14.9783 35.4667 15.0283 36.15 15.1283 36.85C15.3617 38.05 15.6617 38.9333 16.0283 39.5C16.395 40.0667 16.795 40.35 17.2283 40.35C17.995 40.35 18.7617 39.65 19.5283 38.25C20.0617 37.2833 20.445 36.1167 20.6783 34.75C20.945 33.3833 21.0783 32 21.0783 30.6C21.0783 30.0333 21.045 29.4833 20.9783 28.95C20.945 28.4167 20.895 27.9 20.8283 27.4C20.695 26.3333 20.4617 25.4333 20.1283 24.7C19.8283 23.9667 19.3617 23.6 18.7283 23.6C18.3617 23.6 17.9283 23.75 17.4283 24.05C16.9617 24.3167 16.4617 24.8167 15.9283 25.55C15.4283 26.25 14.945 27.0333 14.4783 27.9C14.345 28.3333 14.1117 29.05 13.7783 30.05C13.4783 31.0167 13.3283 32.1167 13.3283 33.35C13.3283 34.0833 13.395 34.7667 13.5283 35.4C13.6617 36.0333 13.5283 36.55 13.1283 36.95C12.7283 37.35 12.295 37.6167 11.8283 37.75C11.395 37.8833 11.1617 37.9 11.1283 37.8C10.8617 36.5 10.6617 35.1667 10.5283 33.8C10.4283 32.4333 10.3783 31.0667 10.3783 29.7C10.3783 28.7333 10.395 27.7667 10.4283 26.8C10.495 25.8 10.5617 24.8333 10.6283 23.9L10.7783 22.1C9.97832 22.4 9.14499 22.55 8.27832 22.55C7.47832 22.55 6.77832 22.3833 6.17832 22.05C5.57832 21.6833 5.27832 21.1333 5.27832 20.4C5.27832 19.3333 5.61165 18.5333 6.27832 18C6.94499 17.4667 7.77832 17.0667 8.77832 16.8C9.01165 16.7333 9.14499 16.7167 9.17832 16.75C9.21165 16.7833 9.11165 16.8333 8.87832 16.9C7.97832 17.2 7.26165 17.6167 6.72832 18.15C6.16165 18.6833 5.87832 19.3667 5.87832 20.2C5.87832 20.8333 6.12832 21.3167 6.62832 21.65C7.09499 21.95 7.69499 22.1 8.42832 22.1C8.56165 22.1 8.69499 22.1 8.82832 22.1C8.96165 22.1 9.09499 22.0833 9.22832 22.05C9.49499 21.9833 9.76165 21.9167 10.0283 21.85C10.3283 21.7833 10.6117 21.6833 10.8783 21.55C11.1117 19.45 11.495 17.3333 12.0283 15.2C12.5617 13.0333 13.295 11.1333 14.2283 9.5C14.695 8.7 15.245 7.93333 15.8783 7.2C16.5117 6.43333 17.1617 6.05 17.8283 6.05C18.5283 6.05 19.1783 6.26666 19.7783 6.7C20.3783 7.1 20.8617 7.6 21.2283 8.2C21.595 8.76666 21.7783 9.31666 21.7783 9.85C21.7783 10.8833 21.5117 11.9333 20.9783 13C20.445 14.0333 19.7617 15.0333 18.9283 16C18.095 16.9333 17.2117 17.8 16.2783 18.6C15.345 19.4 14.4617 20.0667 13.6283 20.6C13.395 22.3 13.2283 23.8833 13.1283 25.35C13.0283 26.7833 12.9783 28.1333 12.9783 29.4C14.245 26.8333 15.495 25.0667 16.7283 24.1C17.995 23.1 19.145 22.6 20.1783 22.6C20.8783 22.6 21.445 22.8333 21.8783 23.3C22.3117 23.7667 22.6617 24.35 22.9283 25.05C23.195 25.75 23.395 26.45 23.5283 27.15C23.7283 28.15 23.8283 29.15 23.8283 30.15C23.8283 31.7167 23.645 33.2167 23.2783 34.65C22.9117 36.0833 22.4783 37.2833 21.9783 38.25C21.545 38.9833 20.9283 39.6667 20.1283 40.3C19.3617 40.9 18.5617 41.2 17.7283 41.2ZM13.7783 19.95C14.445 19.5167 15.1617 18.95 15.9283 18.25C16.7283 17.55 17.495 16.7667 18.2283 15.9C18.995 15 19.6117 14.1 20.0783 13.2C20.545 12.2667 20.7783 11.3667 20.7783 10.5C20.7783 9.73333 20.5617 9.16667 20.1283 8.8C19.695 8.43333 19.295 8.25 18.9283 8.25C18.5283 8.25 18.1117 8.55 17.6783 9.15C17.245 9.71667 16.8617 10.2833 16.5283 10.85C15.995 11.8833 15.4783 13.15 14.9783 14.65C14.4783 16.15 14.0783 17.9167 13.7783 19.95ZM31.9533 42.25C30.9867 42.25 30.12 41.9 29.3533 41.2C28.62 40.5333 27.9867 39.6833 27.4533 38.65C26.9533 37.5833 26.57 36.5 26.3033 35.4C26.0367 34.2667 25.9033 33.2667 25.9033 32.4C25.9033 29.7333 26.2533 27.3333 26.9533 25.2C27.6867 23.0333 28.7533 21.5667 30.1533 20.8C30.9533 20.4333 31.8033 20.25 32.7033 20.25H33.3033C33.47 20.25 33.62 20.25 33.7533 20.25C33.92 20.25 34.0867 20.2833 34.2533 20.35C34.62 20.5833 34.8033 20.7167 34.8033 20.75C34.8033 20.7833 34.5367 20.8 34.0033 20.8C32.5033 20.8 31.3367 21.2 30.5033 22C29.7033 22.7667 29.12 23.75 28.7533 24.95C28.42 26.1167 28.2033 27.3333 28.1033 28.6C28.0367 29.8333 28.0033 30.9167 28.0033 31.85C28.0033 32.2833 28.0533 32.8833 28.1533 33.65C28.2533 34.3833 28.4367 35.1333 28.7033 35.9C29.0033 36.6333 29.42 37.2667 29.9533 37.8C30.52 38.3 31.2533 38.55 32.1533 38.55C33.02 38.55 33.7867 38.1833 34.4533 37.45C35.12 36.6833 35.6533 35.8 36.0533 34.8C36.4533 33.7667 36.6533 32.85 36.6533 32.05C36.6533 30.9833 36.5367 29.8833 36.3033 28.75C36.07 27.5833 35.7033 26.6167 35.2033 25.85C34.3367 24.5833 33.4033 23.95 32.4033 23.95C31.17 23.95 30.5533 24.85 30.5533 26.65C30.5533 28.6833 30.92 29.7 31.6533 29.7C31.82 29.7 31.9867 29.6167 32.1533 29.45C32.3533 29.2833 32.5033 29.1 32.6033 28.9C32.67 28.7667 32.7367 28.65 32.8033 28.55C32.87 28.45 32.9367 28.3667 33.0033 28.3C33.07 28.2333 33.1033 28.1833 33.1033 28.15C33.27 28.15 33.3533 28.2667 33.3533 28.5C33.3533 29.1 33.1033 29.6 32.6033 30C32.1367 30.3667 31.72 30.55 31.3533 30.55C30.7867 30.55 30.37 30.25 30.1033 29.65C29.8367 29.0167 29.7033 28.1333 29.7033 27C29.7033 24.4333 30.52 23.15 32.1533 23.15C33.4533 23.15 34.6367 23.8333 35.7033 25.2C36.2367 25.9667 36.67 26.85 37.0033 27.85C37.3367 28.8167 37.5367 29.8667 37.6033 31C37.6033 31.2667 37.6033 31.55 37.6033 31.85C37.6367 32.1167 37.6533 32.4333 37.6533 32.8C37.6533 33.5667 37.5367 34.4833 37.3033 35.55C37.1033 36.6167 36.77 37.6667 36.3033 38.7C35.87 39.7 35.2867 40.5333 34.5533 41.2C33.82 41.9 32.9533 42.25 31.9533 42.25ZM46.4064 42.25C45.4398 42.25 44.5731 41.9 43.8064 41.2C43.0731 40.5333 42.4398 39.6833 41.9064 38.65C41.4064 37.5833 41.0231 36.5 40.7564 35.4C40.4898 34.2667 40.3564 33.2667 40.3564 32.4C40.3564 29.7333 40.7064 27.3333 41.4064 25.2C42.1398 23.0333 43.2064 21.5667 44.6064 20.8C45.4064 20.4333 46.2564 20.25 47.1564 20.25H47.7564C47.9231 20.25 48.0731 20.25 48.2064 20.25C48.3731 20.25 48.5398 20.2833 48.7064 20.35C49.0731 20.5833 49.2564 20.7167 49.2564 20.75C49.2564 20.7833 48.9898 20.8 48.4564 20.8C46.9564 20.8 45.7898 21.2 44.9564 22C44.1564 22.7667 43.5731 23.75 43.2064 24.95C42.8731 26.1167 42.6564 27.3333 42.5564 28.6C42.4898 29.8333 42.4564 30.9167 42.4564 31.85C42.4564 32.2833 42.5064 32.8833 42.6064 33.65C42.7064 34.3833 42.8898 35.1333 43.1564 35.9C43.4564 36.6333 43.8731 37.2667 44.4064 37.8C44.9731 38.3 45.7064 38.55 46.6064 38.55C47.4731 38.55 48.2398 38.1833 48.9064 37.45C49.5731 36.6833 50.1064 35.8 50.5064 34.8C50.9064 33.7667 51.1064 32.85 51.1064 32.05C51.1064 30.9833 50.9898 29.8833 50.7564 28.75C50.5231 27.5833 50.1564 26.6167 49.6564 25.85C48.7898 24.5833 47.8564 23.95 46.8564 23.95C45.6231 23.95 45.0064 24.85 45.0064 26.65C45.0064 28.6833 45.3731 29.7 46.1064 29.7C46.2731 29.7 46.4398 29.6167 46.6064 29.45C46.8064 29.2833 46.9564 29.1 47.0564 28.9C47.1231 28.7667 47.1898 28.65 47.2564 28.55C47.3231 28.45 47.3898 28.3667 47.4564 28.3C47.5231 28.2333 47.5564 28.1833 47.5564 28.15C47.7231 28.15 47.8064 28.2667 47.8064 28.5C47.8064 29.1 47.5564 29.6 47.0564 30C46.5898 30.3667 46.1731 30.55 45.8064 30.55C45.2398 30.55 44.8231 30.25 44.5564 29.65C44.2898 29.0167 44.1564 28.1333 44.1564 27C44.1564 24.4333 44.9731 23.15 46.6064 23.15C47.9064 23.15 49.0898 23.8333 50.1564 25.2C50.6898 25.9667 51.1231 26.85 51.4564 27.85C51.7898 28.8167 51.9898 29.8667 52.0564 31C52.0564 31.2667 52.0564 31.55 52.0564 31.85C52.0898 32.1167 52.1064 32.4333 52.1064 32.8C52.1064 33.5667 51.9898 34.4833 51.7564 35.55C51.5564 36.6167 51.2231 37.6667 50.7564 38.7C50.3231 39.7 49.7398 40.5333 49.0064 41.2C48.2731 41.9 47.4064 42.25 46.4064 42.25ZM57.0096 41.65C56.6762 39.8833 56.4096 37.9833 56.2096 35.95C56.0429 33.8833 55.9596 31.7333 55.9596 29.5C55.9596 26.8333 56.1096 24.1333 56.4096 21.4C56.7429 18.6333 57.2429 15.9833 57.9096 13.45C58.6096 10.8833 59.5096 8.51667 60.6096 6.35C61.7429 4.18333 63.1262 2.33333 64.7596 0.799999C65.1929 0.433331 65.6429 0.249997 66.1096 0.249997C66.6762 0.249997 67.2429 0.48333 67.8096 0.949997C68.4096 1.41666 68.8596 2.03333 69.1596 2.8C69.5596 3 69.7596 3.46667 69.7596 4.2C69.7596 4.96666 69.4762 6.01666 68.9096 7.35C68.3762 8.68333 67.6596 10.1667 66.7596 11.8C65.8929 13.4333 64.9596 15.1 63.9596 16.8C62.9596 18.5 61.9762 20.1167 61.0096 21.65C60.0762 23.15 59.2762 24.4333 58.6096 25.5C58.5762 26.2 58.5429 26.9 58.5096 27.6C58.5096 28.3 58.5262 28.9833 58.5596 29.65C59.2929 28.35 60.2429 27.1167 61.4096 25.95C62.5762 24.75 63.7762 23.7667 65.0096 23C66.2429 22.2333 67.3262 21.85 68.2596 21.85C68.8596 21.85 69.2929 22 69.5596 22.3C69.8596 22.5667 70.0096 22.9167 70.0096 23.35C70.0096 24.2833 69.6096 25.2167 68.8096 26.15C68.0429 27.05 67.1429 27.85 66.1096 28.55C65.0762 29.25 64.1429 29.7833 63.3096 30.15C63.5096 30.2833 63.7429 30.55 64.0096 30.95C64.6762 31.9167 65.4762 32.7833 66.4096 33.55C67.3762 34.3167 68.3096 34.9 69.2096 35.3C70.1096 35.6667 70.8429 35.7833 71.4096 35.65C71.6762 35.5833 72.2262 35.25 73.0596 34.65C73.8929 34.0167 74.9096 32.8 76.1096 31C76.4429 30.5333 76.7596 30.0667 77.0596 29.6C77.3929 29.1333 77.7262 28.7 78.0596 28.3C78.2262 28.1 78.3596 28.0333 78.4596 28.1C78.5596 28.1667 78.5429 28.2833 78.4096 28.45C77.3762 29.85 76.3262 31.3833 75.2596 33.05C74.1929 34.6833 73.2762 36.3 72.5096 37.9C72.2762 38.3333 71.9929 38.65 71.6596 38.85C71.3262 39.05 70.9762 39.15 70.6096 39.15C69.8762 39.15 69.0596 38.8833 68.1596 38.35C67.2596 37.7833 66.3762 37.1167 65.5096 36.35C64.6429 35.5833 63.8762 34.8333 63.2096 34.1C62.5429 33.3333 62.0596 32.75 61.7596 32.35C61.3262 31.7167 61.1096 31.25 61.1096 30.95C61.1096 30.6833 61.2096 30.5 61.4096 30.4C61.6429 30.2667 61.8762 30.1667 62.1096 30.1C62.2762 30.0667 62.4096 30.0333 62.5096 30C62.6429 29.9333 62.7929 29.9333 62.9596 30C63.3596 29.7333 63.8096 29.3167 64.3096 28.75C64.8096 28.1833 65.2429 27.6 65.6096 27C66.0096 26.4 66.2096 25.9 66.2096 25.5C66.2096 25.0333 65.9262 24.8 65.3596 24.8C64.5262 24.8 63.6262 25.0667 62.6596 25.6C61.7262 26.1333 60.8929 26.95 60.1596 28.05C59.4262 29.1167 58.9429 30.5167 58.7096 32.25C59.0762 36.05 59.5596 38.6833 60.1596 40.15C60.1929 40.2167 60.0429 40.35 59.7096 40.55C59.4096 40.7167 59.0429 40.8833 58.6096 41.05C58.2096 41.25 57.8429 41.4 57.5096 41.5C57.1762 41.6333 57.0096 41.6833 57.0096 41.65ZM58.6596 24.35C59.2596 23.3833 59.9762 22.1833 60.8096 20.75C61.6762 19.3167 62.5762 17.7833 63.5096 16.15C64.4429 14.4833 65.3096 12.8667 66.1096 11.3C66.9429 9.7 67.6096 8.26667 68.1096 7C68.6096 5.7 68.8596 4.7 68.8596 4C68.8596 3.26667 68.5929 2.9 68.0596 2.9C67.5929 2.9 67.1429 3.11667 66.7096 3.55C64.6762 5.48333 63.0096 7.93333 61.7096 10.9C60.4429 13.8667 59.5762 16.9333 59.1096 20.1C58.8762 21.5333 58.7262 22.95 58.6596 24.35ZM84.3299 41.2C83.5965 41.2 82.9132 40.8833 82.2799 40.25C81.6465 39.5833 81.1965 38.4333 80.9299 36.8C80.8299 36.2333 80.7799 35.6833 80.7799 35.15C80.7799 34.05 80.9299 33 81.2299 32C81.5632 30.9667 81.9632 30.0667 82.4299 29.3C83.1632 28.1333 84.0465 27.4667 85.0799 27.3C85.4132 27.3 85.5799 27.3333 85.5799 27.4C85.5799 27.4667 85.4299 27.5333 85.1299 27.6C84.3632 27.7667 83.6132 28.4 82.8799 29.5C82.0132 30.9667 81.5799 32.7333 81.5799 34.8C81.5799 35.4667 81.6299 36.15 81.7299 36.85C81.9632 38.05 82.2632 38.9333 82.6299 39.5C82.9965 40.0667 83.3965 40.35 83.8299 40.35C84.5965 40.35 85.3632 39.65 86.1299 38.25C86.6632 37.2833 87.0465 36.1167 87.2799 34.75C87.5465 33.3833 87.6799 32 87.6799 30.6C87.6799 30.0333 87.6465 29.4833 87.5799 28.95C87.5466 28.4167 87.4966 27.9 87.4299 27.4C87.2966 26.3333 87.0632 25.4333 86.7299 24.7C86.4299 23.9667 85.9632 23.6 85.3299 23.6C84.9632 23.6 84.5299 23.75 84.0299 24.05C83.5632 24.3167 83.0632 24.8167 82.5299 25.55C82.0299 26.25 81.5465 27.0333 81.0799 27.9C80.9465 28.3333 80.7132 29.05 80.3799 30.05C80.0799 31.0167 79.9299 32.1167 79.9299 33.35C79.9299 34.0833 79.9965 34.7667 80.1299 35.4C80.2632 36.0333 80.1299 36.55 79.7299 36.95C79.3299 37.35 78.8965 37.6167 78.4299 37.75C77.9965 37.8833 77.7632 37.9 77.7299 37.8C77.4632 36.5 77.2632 35.1667 77.1299 33.8C77.0299 32.4333 76.9799 31.0667 76.9799 29.7C76.9799 28.7333 76.9965 27.7667 77.0299 26.8C77.0965 25.8 77.1632 24.8333 77.2299 23.9L77.3799 22.1C76.5799 22.4 75.7465 22.55 74.8799 22.55C74.0799 22.55 73.3799 22.3833 72.7799 22.05C72.1799 21.6833 71.8799 21.1333 71.8799 20.4C71.8799 19.3333 72.2132 18.5333 72.8799 18C73.5465 17.4667 74.3799 17.0667 75.3799 16.8C75.6132 16.7333 75.7465 16.7167 75.7799 16.75C75.8132 16.7833 75.7132 16.8333 75.4799 16.9C74.5799 17.2 73.8632 17.6167 73.3299 18.15C72.7632 18.6833 72.4799 19.3667 72.4799 20.2C72.4799 20.8333 72.7299 21.3167 73.2299 21.65C73.6965 21.95 74.2965 22.1 75.0299 22.1C75.1632 22.1 75.2965 22.1 75.4299 22.1C75.5632 22.1 75.6965 22.0833 75.8299 22.05C76.0965 21.9833 76.3632 21.9167 76.6299 21.85C76.9299 21.7833 77.2132 21.6833 77.4799 21.55C77.7132 19.45 78.0965 17.3333 78.6299 15.2C79.1632 13.0333 79.8965 11.1333 80.8299 9.5C81.2965 8.7 81.8465 7.93333 82.4799 7.2C83.1132 6.43333 83.7632 6.05 84.4299 6.05C85.1299 6.05 85.7799 6.26666 86.3799 6.7C86.9799 7.1 87.4632 7.6 87.8299 8.2C88.1965 8.76666 88.3799 9.31666 88.3799 9.85C88.3799 10.8833 88.1132 11.9333 87.5799 13C87.0466 14.0333 86.3632 15.0333 85.5299 16C84.6965 16.9333 83.8132 17.8 82.8799 18.6C81.9465 19.4 81.0632 20.0667 80.2299 20.6C79.9965 22.3 79.8299 23.8833 79.7299 25.35C79.6299 26.7833 79.5799 28.1333 79.5799 29.4C80.8465 26.8333 82.0965 25.0667 83.3299 24.1C84.5965 23.1 85.7466 22.6 86.7799 22.6C87.4799 22.6 88.0466 22.8333 88.4799 23.3C88.9132 23.7667 89.2632 24.35 89.5299 25.05C89.7966 25.75 89.9966 26.45 90.1299 27.15C90.3299 28.15 90.4299 29.15 90.4299 30.15C90.4299 31.7167 90.2466 33.2167 89.8799 34.65C89.5132 36.0833 89.0799 37.2833 88.5799 38.25C88.1466 38.9833 87.5299 39.6667 86.7299 40.3C85.9632 40.9 85.1632 41.2 84.3299 41.2ZM80.3799 19.95C81.0465 19.5167 81.7632 18.95 82.5299 18.25C83.3299 17.55 84.0965 16.7667 84.8299 15.9C85.5966 15 86.2132 14.1 86.6799 13.2C87.1465 12.2667 87.3799 11.3667 87.3799 10.5C87.3799 9.73333 87.1632 9.16667 86.7299 8.8C86.2966 8.43333 85.8966 8.25 85.5299 8.25C85.1299 8.25 84.7132 8.55 84.2799 9.15C83.8465 9.71667 83.4632 10.2833 83.1299 10.85C82.5965 11.8833 82.0799 13.15 81.5799 14.65C81.0799 16.15 80.6799 17.9167 80.3799 19.95ZM94.6814 40.95C94.5481 40.95 94.3314 40.8833 94.0314 40.75C93.7648 40.5833 93.4981 40.4 93.2314 40.2C92.6981 40.0667 92.2981 39.7167 92.0314 39.15C91.7314 38.55 91.5481 37.85 91.4814 37.05C91.4148 36.25 91.4314 35.45 91.5314 34.65C91.6314 33.85 91.7981 33.1833 92.0314 32.65C92.3981 31.65 92.8481 30.5833 93.3814 29.45C93.9481 28.3167 94.6481 27.2333 95.4814 26.2C96.3148 25.1667 97.3148 24.3167 98.4814 23.65C99.6481 22.95 101.031 22.5667 102.631 22.5C103.465 22.5 104.215 22.7 104.881 23.1C105.581 23.4667 105.931 23.9 105.931 24.4C105.931 24.8333 105.715 25.2667 105.281 25.7C104.881 26.1 104.298 26.3833 103.531 26.55C103.398 26.5833 103.248 26.6167 103.081 26.65C102.948 26.65 102.798 26.65 102.631 26.65C102.165 26.65 101.931 26.6 101.931 26.5C101.931 26.4 102.031 26.35 102.231 26.35C102.798 26.35 103.315 26.15 103.781 25.75C104.248 25.35 104.481 24.85 104.481 24.25C104.481 23.65 104.265 23.3667 103.831 23.4C102.498 23.6 101.315 24.1833 100.281 25.15C99.2814 26.0833 98.4148 27.2 97.6814 28.5C96.9814 29.8 96.3981 31.1167 95.9314 32.45C95.4648 33.7833 95.0981 34.95 94.8314 35.95C94.6648 36.6167 94.5148 37.2833 94.3814 37.95C94.2814 38.6167 94.2481 39.1833 94.2814 39.65C94.3481 40.0833 94.5148 40.3 94.7814 40.3C95.3481 40.3 96.0148 40 96.7814 39.4C97.5814 38.8 98.3814 38.0333 99.1814 37.1C100.015 36.1333 100.798 35.1167 101.531 34.05C102.265 32.95 102.865 31.9333 103.331 31C103.265 30.6 103.215 30.2 103.181 29.8C103.148 29.4 103.115 29 103.081 28.6C103.081 28.4667 103.215 28.2667 103.481 28C103.781 27.7 104.115 27.4167 104.481 27.15C104.848 26.8833 105.165 26.6833 105.431 26.55C105.698 26.4167 105.815 26.4333 105.781 26.6C105.815 27.4333 105.948 28.4333 106.181 29.6C106.415 30.7333 106.731 31.9167 107.131 33.15C107.531 34.35 107.998 35.4667 108.531 36.5C109.098 37.5333 109.715 38.35 110.381 38.95C111.048 39.55 111.698 39.85 112.331 39.85C112.498 39.85 112.648 39.8333 112.781 39.8C112.948 39.7333 113.098 39.6833 113.231 39.65C113.365 39.5833 113.498 39.55 113.631 39.55C113.698 39.55 113.731 39.5833 113.731 39.65C113.731 39.85 113.598 39.9833 113.331 40.05C112.298 40.5167 111.298 40.75 110.331 40.75C109.198 40.75 108.215 40.3833 107.381 39.65C106.215 38.5833 105.331 37.3833 104.731 36.05C104.165 34.7167 103.748 33.3167 103.481 31.85C102.981 32.85 102.381 33.8833 101.681 34.95C100.981 36.0167 100.231 37.0167 99.4314 37.95C98.6314 38.85 97.8148 39.5833 96.9814 40.15C96.1814 40.6833 95.4148 40.95 94.6814 40.95ZM114.715 41.5C114.515 41.5 114.365 41.4333 114.265 41.3C113.932 40.9333 113.698 40.4 113.565 39.7C113.432 38.9667 113.365 38.1667 113.365 37.3C113.365 36.2 113.432 35.0667 113.565 33.9C113.732 32.7 113.898 31.6167 114.065 30.65C114.265 29.65 114.398 28.9333 114.465 28.5C114.232 28.7667 114.015 29.0667 113.815 29.4C113.615 29.7 113.282 30.15 112.815 30.75C112.782 30.7833 112.732 30.8 112.665 30.8C112.598 30.8 112.532 30.7667 112.465 30.7C112.432 30.6 112.432 30.5167 112.465 30.45C113.132 29.4833 113.715 28.5667 114.215 27.7C114.748 26.8333 115.198 26.0667 115.565 25.4C115.665 25.2 115.882 25.2667 116.215 25.6C116.582 25.9333 116.915 26.3333 117.215 26.8C117.548 27.2333 117.698 27.5333 117.665 27.7C117.432 28.2667 117.215 29.0333 117.015 30C116.815 30.9667 116.648 31.9833 116.515 33.05C116.415 34.1167 116.365 35.1 116.365 36C117.132 34.2 117.982 32.4667 118.915 30.8C119.848 29.1333 120.898 27.55 122.065 26.05C123.098 24.75 124.148 24.1 125.215 24.1C126.048 24.1 126.465 24.5833 126.465 25.55C126.465 25.95 126.398 26.3667 126.265 26.8C126.098 27.2333 125.898 27.8833 125.665 28.75C125.465 29.5833 125.265 30.5167 125.065 31.55C124.865 32.55 124.698 33.5333 124.565 34.5C124.465 35.4667 124.415 36.3167 124.415 37.05C124.415 37.7833 124.482 38.2833 124.615 38.55C125.315 37.3833 126.198 35.8833 127.265 34.05C128.365 32.1833 129.715 30.2667 131.315 28.3C131.482 28.1 131.615 28.0333 131.715 28.1C131.815 28.1667 131.798 28.2833 131.665 28.45C130.065 30.5833 128.698 32.6833 127.565 34.75C126.465 36.7833 125.665 38.55 125.165 40.05C125.065 40.15 124.715 40.1 124.115 39.9C123.548 39.7 122.998 39.4333 122.465 39.1C121.932 38.7667 121.632 38.5 121.565 38.3C121.598 36.3 121.748 34.35 122.015 32.45C122.315 30.55 122.632 28.9 122.965 27.5C123.065 27.1667 122.982 27 122.715 27C122.548 27 122.315 27.1 122.015 27.3C121.748 27.4667 121.465 27.7667 121.165 28.2C120.598 28.9667 119.948 30 119.215 31.3C118.515 32.5667 117.898 33.9167 117.365 35.35C116.865 36.75 116.615 38.05 116.615 39.25C116.615 40.0167 116.665 40.5333 116.765 40.8C116.465 40.9 116.115 41.0333 115.715 41.2C115.315 41.4 114.982 41.5 114.715 41.5ZM132.351 41.65C132.018 39.8833 131.751 37.9833 131.551 35.95C131.385 33.8833 131.301 31.7333 131.301 29.5C131.301 26.8333 131.451 24.1333 131.751 21.4C132.085 18.6333 132.585 15.9833 133.251 13.45C133.951 10.8833 134.851 8.51667 135.951 6.35C137.085 4.18333 138.468 2.33333 140.101 0.799999C140.535 0.433331 140.985 0.249997 141.451 0.249997C142.018 0.249997 142.585 0.48333 143.151 0.949997C143.751 1.41666 144.201 2.03333 144.501 2.8C144.901 3 145.101 3.46667 145.101 4.2C145.101 4.96666 144.818 6.01666 144.251 7.35C143.718 8.68333 143.001 10.1667 142.101 11.8C141.235 13.4333 140.301 15.1 139.301 16.8C138.301 18.5 137.318 20.1167 136.351 21.65C135.418 23.15 134.618 24.4333 133.951 25.5C133.918 26.2 133.885 26.9 133.851 27.6C133.851 28.3 133.868 28.9833 133.901 29.65C134.635 28.35 135.585 27.1167 136.751 25.95C137.918 24.75 139.118 23.7667 140.351 23C141.585 22.2333 142.668 21.85 143.601 21.85C144.201 21.85 144.635 22 144.901 22.3C145.201 22.5667 145.351 22.9167 145.351 23.35C145.351 24.2833 144.951 25.2167 144.151 26.15C143.385 27.05 142.485 27.85 141.451 28.55C140.418 29.25 139.485 29.7833 138.651 30.15C138.851 30.2833 139.085 30.55 139.351 30.95C140.018 31.9167 140.818 32.7833 141.751 33.55C142.718 34.3167 143.651 34.9 144.551 35.3C145.451 35.6667 146.185 35.7833 146.751 35.65C147.018 35.5833 147.568 35.25 148.401 34.65C149.235 34.0167 150.251 32.8 151.451 31C151.785 30.5333 152.101 30.0667 152.401 29.6C152.735 29.1333 153.068 28.7 153.401 28.3C153.568 28.1 153.701 28.0333 153.801 28.1C153.901 28.1667 153.885 28.2833 153.751 28.45C152.718 29.85 151.668 31.3833 150.601 33.05C149.535 34.6833 148.618 36.3 147.851 37.9C147.618 38.3333 147.335 38.65 147.001 38.85C146.668 39.05 146.318 39.15 145.951 39.15C145.218 39.15 144.401 38.8833 143.501 38.35C142.601 37.7833 141.718 37.1167 140.851 36.35C139.985 35.5833 139.218 34.8333 138.551 34.1C137.885 33.3333 137.401 32.75 137.101 32.35C136.668 31.7167 136.451 31.25 136.451 30.95C136.451 30.6833 136.551 30.5 136.751 30.4C136.985 30.2667 137.218 30.1667 137.451 30.1C137.618 30.0667 137.751 30.0333 137.851 30C137.985 29.9333 138.135 29.9333 138.301 30C138.701 29.7333 139.151 29.3167 139.651 28.75C140.151 28.1833 140.585 27.6 140.951 27C141.351 26.4 141.551 25.9 141.551 25.5C141.551 25.0333 141.268 24.8 140.701 24.8C139.868 24.8 138.968 25.0667 138.001 25.6C137.068 26.1333 136.235 26.95 135.501 28.05C134.768 29.1167 134.285 30.5167 134.051 32.25C134.418 36.05 134.901 38.6833 135.501 40.15C135.535 40.2167 135.385 40.35 135.051 40.55C134.751 40.7167 134.385 40.8833 133.951 41.05C133.551 41.25 133.185 41.4 132.851 41.5C132.518 41.6333 132.351 41.6833 132.351 41.65ZM134.001 24.35C134.601 23.3833 135.318 22.1833 136.151 20.75C137.018 19.3167 137.918 17.7833 138.851 16.15C139.785 14.4833 140.651 12.8667 141.451 11.3C142.285 9.7 142.951 8.26667 143.451 7C143.951 5.7 144.201 4.7 144.201 4C144.201 3.26667 143.935 2.9 143.401 2.9C142.935 2.9 142.485 3.11667 142.051 3.55C140.018 5.48333 138.351 7.93333 137.051 10.9C135.785 13.8667 134.918 16.9333 134.451 20.1C134.218 21.5333 134.068 22.95 134.001 24.35Z" fill="white"/>
</svg>
